<svg width="32" height="32" viewBox="0 0 32 32" fill="none" xmlns="http://www.w3.org/2000/svg">
<path d="M25 0H7C3.13401 0 0 3.13401 0 7V25C0 28.866 3.13401 32 7 32H25C28.866 32 32 28.866 32 25V7C32 3.13401 28.866 0 25 0Z" fill="white"/>
<path d="M24.0702 11.6668L24.0705 11.6674C24.3556 12.3146 24.5019 13.004 24.5 13.7131M24.0702 11.6668L10.8108 8.9038C10.1711 9.16249 9.59347 9.53517 9.09748 10.0096C8.6021 10.4817 8.20573 11.0449 7.93139 11.6674L7.93137 11.6674C7.64614 12.3148 7.5 13.0039 7.5 13.7124C7.5 14.3848 7.64063 15.0743 7.91038 15.7633L7.91049 15.7636C8.13583 16.3381 8.45519 16.9251 8.85631 17.51L8.85651 17.5103C9.49183 18.4353 10.3558 19.3869 11.4137 20.3408M24.0702 11.6668C23.7952 11.0451 23.3993 10.4825 22.9049 10.01L24.0702 11.6668ZM24.5 13.7131C24.4999 14.3852 24.3593 15.0742 24.0898 15.7627M24.5 13.7131C24.5 13.7134 24.5 13.7136 24.5 13.7138L24 13.7124H24.5C24.5 13.7126 24.5 13.7129 24.5 13.7131ZM24.0898 15.7627C23.8658 16.3388 23.5441 16.9262 23.1436 17.51L23.1434 17.5103C22.5081 18.4353 21.6441 19.387 20.5862 20.3408L20.5861 20.341C18.834 21.9196 17.1057 23.0066 17.0237 23.0579L16.585 23.3328L16.5839 23.3335C16.2276 23.5555 15.7724 23.5555 15.4161 23.3335L15.415 23.3328L14.9786 23.0594C14.8373 22.9728 13.1347 21.8931 11.4137 20.3408M24.0898 15.7627C24.0897 15.7629 24.0897 15.7631 24.0896 15.7633L23.624 15.581L24.09 15.7621C24.09 15.7623 24.0899 15.7625 24.0898 15.7627ZM11.4137 20.3408L11.7486 19.9695L11.4138 20.3408C11.4138 20.3408 11.4137 20.3408 11.4137 20.3408ZM19.1061 8.50001C19.8214 8.49846 20.5301 8.63565 21.1913 8.90392C21.8289 9.16167 22.4105 9.53689 22.9045 10.0097L16.273 9.27591C17.1251 8.76814 18.1043 8.50014 19.1061 8.50001ZM19.1061 8.50001C19.1063 8.50001 19.1066 8.50001 19.1068 8.50001V9.00001L19.1057 8.50001C19.1058 8.50001 19.106 8.50001 19.1061 8.50001ZM12.895 8.50001C13.8972 8.50001 14.8766 8.76805 15.729 9.27597L12.895 8.50001ZM12.895 8.50001C12.1743 8.50001 11.4735 8.635 10.8111 8.90369L12.895 8.50001ZM22.2133 10.7324L22.2137 10.7327C22.6142 11.1153 22.9338 11.5699 23.1554 12.0707C23.385 12.5919 23.5016 13.1433 23.5 13.711V13.7124C23.5 14.2445 23.3887 14.8105 23.1584 15.3987L23.158 15.3999C22.9672 15.8907 22.6853 16.4102 22.3192 16.9441C21.7395 17.788 20.9331 18.6816 19.9167 19.598C18.2276 21.12 16.5555 22.1712 16.4931 22.2103L16.4929 22.2104L16.0551 22.4847C16.055 22.4848 16.055 22.4848 16.0549 22.4848C16.0224 22.505 15.9777 22.5051 15.9452 22.4849C15.9451 22.4848 15.945 22.4848 15.9449 22.4847L15.5071 22.2104L15.5071 22.2103L15.4989 22.2054C15.4991 22.2055 15.498 22.2048 15.4953 22.2032C15.4917 22.2009 15.4853 22.197 15.4756 22.1909C15.4602 22.1811 15.4386 22.1675 15.4113 22.1499C15.3568 22.1149 15.2799 22.065 15.1839 22.0011C14.9918 21.8734 14.7236 21.6905 14.4044 21.4609C13.7652 21.0013 12.9254 20.3576 12.0835 19.5982L12.0834 19.5982C11.067 18.6817 10.2606 17.7883 9.681 16.9444C9.31538 16.4113 9.03467 15.8911 8.84145 15.3984C8.61122 14.8103 8.5 14.2445 8.5 13.7124C8.5 13.1437 8.61686 12.5918 8.84649 12.0706C9.06725 11.5697 9.38683 11.1152 9.78769 10.7332L9.78839 10.7325C10.1924 10.3461 10.6627 10.0424 11.1859 9.83077L11.1865 9.83055C11.7277 9.61097 12.3009 9.50001 12.895 9.50001C13.719 9.50001 14.5212 9.72038 15.2172 10.135L15.2172 10.1351C15.3836 10.2342 15.5413 10.3429 15.6904 10.461L16.0009 10.707L16.3114 10.461C16.4605 10.3429 16.6182 10.2342 16.7846 10.1351L16.7848 10.135C17.4806 9.72039 18.2829 9.50001 19.1068 9.50001L19.1079 9.50001C19.6942 9.49869 20.2746 9.61114 20.8153 9.83054L20.816 9.83082C21.3373 10.0415 21.8115 10.3477 22.2133 10.7324ZM16.2728 9.27599C16.1801 9.33119 16.0895 9.38892 16.0009 9.44915L16.2728 9.27599ZM7 0.5H25C28.5899 0.5 31.5 3.41015 31.5 7V25C31.5 28.5899 28.5899 31.5 25 31.5H7C3.41015 31.5 0.5 28.5899 0.5 25V7C0.5 3.41015 3.41015 0.5 7 0.5Z" stroke="#F0F0F0"/>
</svg>
